<svg width="18" height="18" viewBox="0 0 18 18" fill="none" xmlns="http://www.w3.org/2000/svg">
<path d="M15 1H3C1.89543 1 1 1.89543 1 3V3.50816C1 4.05734 1.22583 4.58236 1.62451 4.96006L6.59771 9.67152C6.99639 10.0492 7.22222 10.5742 7.22222 11.1234V15.3158V15.5157C7.22222 16.0762 7.89284 16.3647 8.29974 15.9792L9 15.3158L10.1533 14.2232C10.5519 13.8455 10.7778 13.3205 10.7778 12.7713V11.1234C10.7778 10.5742 11.0036 10.0492 11.4023 9.67152L16.3755 4.96006C16.7742 4.58236 17 4.05734 17 3.50816V3C17 1.89543 16.1046 1 15 1Z" stroke="#323232" stroke-width="2" stroke-linecap="round" stroke-linejoin="round"/>
</svg>
