<svg width="21" height="16" viewBox="0 0 21 16" fill="none" xmlns="http://www.w3.org/2000/svg">
<path d="M14 8C14 9.65685 12.6569 11 11 11C9.34315 11 8 9.65685 8 8C8 6.34315 9.34315 5 11 5C12.6569 5 14 6.34315 14 8Z" stroke="#313949" stroke-width="1.7"/>
<path d="M5.94975 3.05025C8.68342 0.316582 13.1156 0.316582 15.8492 3.05025L17.9706 5.17157C19.3039 6.50491 19.9706 7.17157 19.9706 8C19.9706 8.82843 19.3039 9.49509 17.9706 10.8284L15.8492 12.9497C13.1156 15.6834 8.68342 15.6834 5.94975 12.9497L3.82843 10.8284C2.49509 9.49509 1.82843 8.82843 1.82843 8C1.82843 7.17157 2.49509 6.50491 3.82843 5.17157L5.94975 3.05025Z" stroke="#313949" stroke-width="1.7" stroke-linejoin="round"/>
</svg>
