<svg width="18" height="17" viewBox="0 0 18 17" fill="none" xmlns="http://www.w3.org/2000/svg">
<path d="M6.79785 9.4375H11.7979" stroke="#313949" stroke-width="1.7" stroke-linecap="round" stroke-linejoin="round"/>
<path d="M1.79883 3.34376C1.79883 3.02445 1.79883 2.8648 1.81702 2.73083C1.93803 1.83988 2.63871 1.1392 3.52966 1.0182C3.66363 1 3.82328 1 4.14259 1H9.29885H14.4551C14.7744 1 14.9341 1 15.068 1.0182C15.959 1.1392 16.6597 1.83988 16.7807 2.73083C16.7989 2.8648 16.7989 3.02445 16.7989 3.34376V3.34376V3.34376C16.7989 3.66306 16.7989 3.82271 16.7807 3.95668C16.6597 4.84763 15.959 5.54831 15.068 5.66932C14.9341 5.68752 14.7744 5.68752 14.4551 5.68752H9.29885H4.14258C3.82328 5.68752 3.66363 5.68752 3.52966 5.66932C2.63871 5.54831 1.93803 4.84763 1.81702 3.95668C1.79883 3.82271 1.79883 3.66306 1.79883 3.34376V3.34376V3.34376Z" stroke="#313949" stroke-width="1.7" stroke-linejoin="round"/>
<path d="M2.63184 5.6875V12C2.63184 13.8856 2.63184 14.8284 3.21762 15.4142C3.80341 16 4.74622 16 6.63184 16H6.79852H11.7985H11.9652C13.8508 16 14.7936 16 15.3794 15.4142C15.9652 14.8284 15.9652 13.8856 15.9652 12V5.6875" stroke="#313949" stroke-width="1.7" stroke-linecap="round" stroke-linejoin="round"/>
</svg>
