<svg width="22" height="22" viewBox="0 0 22 22" fill="none" xmlns="http://www.w3.org/2000/svg">
<path d="M9.40039 3.83906C9.02246 4.74609 7.96267 5.15585 7.07049 4.74407C5.59431 4.06276 4.06276 5.59431 4.74407 7.07049C5.15585 7.96267 4.74609 9.02246 3.83906 9.40039C2.41719 9.99284 2.41719 12.0072 3.83906 12.5996C4.74609 12.9775 5.15585 14.0373 4.74407 14.9295C4.06276 16.4057 5.59431 17.9372 7.07049 17.2559C7.96267 16.8442 9.02246 17.2539 9.40039 18.1609C9.99284 19.5828 12.0072 19.5828 12.5996 18.1609C12.9775 17.2539 14.0373 16.8442 14.9295 17.2559C16.4057 17.9372 17.9372 16.4057 17.2559 14.9295C16.8442 14.0373 17.2539 12.9775 18.1609 12.5996C19.5828 12.0072 19.5828 9.99284 18.1609 9.40039C17.2539 9.02246 16.8442 7.96267 17.2559 7.07049C17.9372 5.59431 16.4057 4.06276 14.9295 4.74407C14.0373 5.15585 12.9775 4.74609 12.5996 3.83906C12.0072 2.41719 9.99284 2.41719 9.40039 3.83906Z" stroke="#313949" stroke-width="2" stroke-linecap="round" stroke-linejoin="round"/>
<path d="M13.75 11C13.75 12.5188 12.5188 13.75 11 13.75C9.48122 13.75 8.25 12.5188 8.25 11C8.25 9.48122 9.48122 8.25 11 8.25C12.5188 8.25 13.75 9.48122 13.75 11Z" stroke="#313949" stroke-width="2"/>
</svg>
