<svg width="16" height="20" viewBox="0 0 16 20" fill="none" xmlns="http://www.w3.org/2000/svg">
<path d="M5 15.6667C5 15.6667 5 18.5001 8.04644 18.5001C11.0929 18.5001 11.0929 15.6667 11.0929 15.6667" stroke="#313949" stroke-width="2" stroke-linejoin="round"/>
<path d="M2.99605 5.94631L1.49331 13.2644C1.23859 14.5048 2.18614 15.6667 3.45243 15.6667H5H11H12.5476C13.8139 15.6667 14.7614 14.5048 14.5067 13.2644L13.0039 5.9463C13.0013 5.93349 12.999 5.9224 12.9959 5.90969C12.9227 5.60864 11.8535 1.5 8 1.5C4.14655 1.5 3.0773 5.60864 3.00412 5.90969C3.00104 5.9224 2.99868 5.93349 2.99605 5.94631Z" stroke="#313949" stroke-width="2" stroke-linejoin="round"/>
</svg>
